                                                                        S      1
,,,10HMotorClamp,22HAutodesk Inventor 2024,7Hunknown,32,38,7,99,15,,1., G      1
2,2HMM,1,0.08,15H20231104.183338,0.01,10000.,7HKirikDK,,11,0,15H20230828G      2
.000000;                                                                G      3
     186       1                                                00000000D      1
     186            -259       1       0                               0D      2
     514       2                                                00010000D      3
     514                       2       1                               0D      4
     510       4                                                00010000D      5
     510            -259       1       1                               0D      6
     510       5                                                00010000D      7
     510            -259       1       1                               0D      8
     510       6                                                00010000D      9
     510            -259       1       1                               0D     10
     510       7                                                00010000D     11
     510            -259       1       1                               0D     12
     510       8                                                00010000D     13
     510            -259       1       1                               0D     14
     510       9                                                00010000D     15
     510            -259       1       1                               0D     16
     510      10                                                00010000D     17
     510            -259       1       1                               0D     18
     510      11                                                00010000D     19
     510            -259       1       1                               0D     20
     510      12                                                00010000D     21
     510            -259       1       1                               0D     22
     510      13                                                00010000D     23
     510            -259       1       1                               0D     24
     510      14                                                00010000D     25
     510            -259       1       1                               0D     26
     510      15                                                00010000D     27
     510            -259       1       1                               0D     28
     510      16                                                00010000D     29
     510            -259       1       1                               0D     30
     510      17                                                00010000D     31
     510            -259       1       1                               0D     32
     510      18                                                00010000D     33
     510            -259       1       1                               0D     34
     510      19                                                00010000D     35
     510            -259       1       1                               0D     36
     510      20                                                00010000D     37
     510            -259       1       1                               0D     38
     510      21                                                00010000D     39
     510            -259       1       1                               0D     40
     510      22                                                00010000D     41
     510            -259       1       1                               0D     42
     510      23                                                00010000D     43
     510            -259       1       1                               0D     44
     510      24                                                00010000D     45
     510            -259       1       1                               0D     46
     510      25                                                00010000D     47
     510            -259       1       1                               0D     48
     508      26                                                00010000D     49
     508                       1       1                               0D     50
     508      27                                                00010000D     51
     508                       1       1                               0D     52
     508      28                                                00010000D     53
     508                       1       1                               0D     54
     508      29                                                00010000D     55
     508                       1       1                               0D     56
     508      30                                                00010000D     57
     508                       1       1                               0D     58
     508      31                                                00010000D     59
     508                       2       1                               0D     60
     508      33                                                00010000D     61
     508                       2       1                               0D     62
     508      35                                                00010000D     63
     508                       4       1                               0D     64
     508      39                                                00010000D     65
     508                       1       1                               0D     66
     508      40                                                00010000D     67
     508                       1       1                               0D     68
     508      41                                                00010000D     69
     508                       1       1                               0D     70
     508      42                                                00010000D     71
     508                       1       1                               0D     72
     508      43                                                00010000D     73
     508                       1       1                               0D     74
     508      44                                                00010000D     75
     508                       1       1                               0D     76
     508      45                                                00010000D     77
     508                       1       1                               0D     78
     508      46                                                00010000D     79
     508                       4       1                               0D     80
     508      50                                                00010000D     81
     508                       1       1                               0D     82
     508      51                                                00010000D     83
     508                       1       1                               0D     84
     508      52                                                00010000D     85
     508                       2       1                               0D     86
     508      54                                                00010000D     87
     508                       1       1                               0D     88
     508      55                                                00010000D     89
     508                       1       1                               0D     90
     508      56                                                00010000D     91
     508                       2       1                               0D     92
     126      58                                                00010000D     93
     126       0               2       0                               0D     94
     126      60                                                00010000D     95
     126       0               2       0                               0D     96
     126      62                                                00010000D     97
     126       0               2       0                               0D     98
     126      64                                                00010000D     99
     126       0               2       0                               0D    100
     126      66                                                00010000D    101
     126       0               6       0                               0D    102
     126      72                                                00010000D    103
     126       0               4       0                               0D    104
     126      76                                                00010000D    105
     126       0               3       0                               0D    106
     126      79                                                00010000D    107
     126       0               3       0                               0D    108
     126      82                                                00010000D    109
     126       0               3       0                               0D    110
     126      85                                                00010000D    111
     126       0               2       0                               0D    112
     126      87                                                00010000D    113
     126       0               4       0                               0D    114
     126      91                                                00010000D    115
     126       0               5       0                               0D    116
     126      96                                                00010000D    117
     126       0               3       0                               0D    118
     126      99                                                00010000D    119
     126       0               3       0                               0D    120
     126     102                                                00010000D    121
     126       0               2       0                               0D    122
     126     104                                                00010000D    123
     126       0               3       0                               0D    124
     126     107                                                00010000D    125
     126       0               3       0                               0D    126
     126     110                                                00010000D    127
     126       0               2       0                               0D    128
     126     112                                                00010000D    129
     126       0               4       0                               0D    130
     126     116                                                00010000D    131
     126       0               3       0                               0D    132
     126     119                                                00010000D    133
     126       0               3       0                               0D    134
     126     122                                                00010000D    135
     126       0               3       0                               0D    136
     126     125                                                00010000D    137
     126       0               3       0                               0D    138
     126     128                                                00010000D    139
     126       0               2       0                               0D    140
     126     130                                                00010000D    141
     126       0               4       0                               0D    142
     126     134                                                00010000D    143
     126       0               4       0                               0D    144
     126     138                                                00010000D    145
     126       0              12       0                               0D    146
     126     150                                                00010000D    147
     126       0               4       0                               0D    148
     126     154                                                00010000D    149
     126       0               6       0                               0D    150
     126     160                                                00010000D    151
     126       0               3       0                               0D    152
     126     163                                                00010000D    153
     126       0               4       0                               0D    154
     126     167                                                00010000D    155
     126       0               2       0                               0D    156
     126     169                                                00010000D    157
     126       0               2       0                               0D    158
     126     171                                                00010000D    159
     126       0               6       0                               0D    160
     126     177                                                00010000D    161
     126       0               3       0                               0D    162
     126     180                                                00010000D    163
     126       0               2       0                               0D    164
     126     182                                                00010000D    165
     126       0               4       0                               0D    166
     126     186                                                00010000D    167
     126       0               2       0                               0D    168
     126     188                                                00010000D    169
     126       0               4       0                               0D    170
     126     192                                                00010000D    171
     126       0               4       0                               0D    172
     126     196                                                00010000D    173
     126       0               2       0                               0D    174
     126     198                                                00010000D    175
     126       0               2       0                               0D    176
     126     200                                                00010000D    177
     126       0               4       0                               0D    178
     126     204                                                00010000D    179
     126       0               2       0                               0D    180
     126     206                                                00010000D    181
     126       0               5       0                               0D    182
     126     211                                                00010000D    183
     126       0               2       0                               0D    184
     126     213                                                00010000D    185
     126       0               4       0                               0D    186
     126     217                                                00010000D    187
     126       0               4       0                               0D    188
     126     221                                                00010000D    189
     126       0               3       0                               0D    190
     126     224                                                00010000D    191
     126       0               6       0                               0D    192
     126     230                                                00010000D    193
     126       0               2       0                               0D    194
     126     232                                                00010000D    195
     126       0               2       0                               0D    196
     126     234                                                00010000D    197
     126       0               4       0                               0D    198
     126     238                                                00010000D    199
     126       0               4       0                               0D    200
     126     242                                                00010000D    201
     126       0              12       0                               0D    202
     126     254                                                00010000D    203
     126       0               3       0                               0D    204
     126     257                                                00010000D    205
     126       0               2       0                               0D    206
     126     259                                                00010000D    207
     126       0               2       0                               0D    208
     128     261                                                00010000D    209
     128       0    -259       4       0                               0D    210
     128     265                                                00010000D    211
     128       0    -259       7       0                               0D    212
     128     272                                                00010000D    213
     128       0    -259       6       0                               0D    214
     128     278                                                00010000D    215
     128       0    -259       7       0                               0D    216
     128     285                                                00010000D    217
     128       0    -259       6       0                               0D    218
     128     291                                                00010000D    219
     128       0    -259       6       0                               0D    220
     128     297                                                00010000D    221
     128       0    -259       6       0                               0D    222
     128     303                                                00010000D    223
     128       0    -259       4       0                               0D    224
     128     307                                                00010000D    225
     128       0    -259       5       0                               0D    226
     128     312                                                00010000D    227
     128       0    -259       6       0                               0D    228
     128     318                                                00010000D    229
     128       0    -259       6       0                               0D    230
     128     324                                                00010000D    231
     128       0    -259       6       0                               0D    232
     128     330                                                00010000D    233
     128       0    -259      10       0                               0D    234
     128     340                                                00010000D    235
     128       0    -259       8       0                               0D    236
     128     348                                                00010000D    237
     128       0    -259       5       0                               0D    238
     128     353                                                00010000D    239
     128       0    -259       4       0                               0D    240
     128     357                                                00010000D    241
     128       0    -259       5       0                               0D    242
     128     362                                                00010000D    243
     128       0    -259      18       0                               0D    244
     128     380                                                00010000D    245
     128       0    -259       7       0                               0D    246
     128     387                                                00010000D    247
     128       0    -259       4       0                               0D    248
     128     391                                                00010000D    249
     128       0    -259       3       0                               0D    250
     128     394                                                00010000D    251
     128       0    -259       6       0                               0D    252
     502     400                                                00010000D    253
     502                      19       1                               0D    254
     504     419                                                00010001D    255
     504                      17       1                               0D    256
     406     436                                                00000000D    257
     406                       1      15                               0D    258
     314     437                                                00000200D    259
     314                       1       0                               0D    260
186,3,1,0,0,1,257;                                                     1P      1
514,22,5,1,7,1,9,1,11,1,13,1,15,1,17,1,19,1,21,1,23,1,25,1,27,1,       3P      2
29,1,31,1,33,1,35,1,37,1,39,1,41,1,43,1,45,1,47,1;                     3P      3
510,209,1,1,49;                                                        5P      4
510,211,1,1,51;                                                        7P      5
510,213,1,1,53;                                                        9P      6
510,215,1,1,55;                                                       11P      7
510,217,1,1,57;                                                       13P      8
510,219,1,1,59;                                                       15P      9
510,221,1,1,61;                                                       17P     10
510,223,1,1,63;                                                       19P     11
510,225,1,1,65;                                                       21P     12
510,227,1,1,67;                                                       23P     13
510,229,1,1,69;                                                       25P     14
510,231,1,1,71;                                                       27P     15
510,233,1,1,73;                                                       29P     16
510,235,1,1,75;                                                       31P     17
510,237,1,1,77;                                                       33P     18
510,239,1,1,79;                                                       35P     19
510,241,1,1,81;                                                       37P     20
510,243,1,1,83;                                                       39P     21
510,245,1,1,85;                                                       41P     22
510,247,1,1,87;                                                       43P     23
510,249,1,1,89;                                                       45P     24
510,251,1,1,91;                                                       47P     25
508,4,0,255,1,1,0,0,255,2,1,0,0,255,3,1,0,0,255,4,1,0;                49P     26
508,3,0,255,5,0,0,0,255,6,0,0,0,255,7,1,0;                            51P     27
508,4,0,255,8,0,0,0,255,9,0,0,0,255,7,0,0,0,255,10,0,0;               53P     28
508,3,0,255,11,0,0,0,255,12,0,0,0,255,13,1,0;                         55P     29
508,4,0,255,14,0,0,0,255,15,1,0,0,255,13,0,0,0,255,16,0,0;            57P     30
508,5,0,255,17,0,0,0,255,10,1,0,0,255,18,1,0,0,255,19,0,0,0,255,      59P     31
20,0,0;                                                               59P     32
508,5,0,255,15,0,0,0,255,21,0,0,0,255,22,1,0,0,255,23,0,0,0,255,      61P     33
24,0,0;                                                               61P     34
508,16,0,255,25,1,0,0,255,26,1,0,0,255,27,1,0,0,255,28,1,0,0,         63P     35
255,29,1,0,0,255,30,1,0,0,255,21,1,0,0,255,14,1,0,0,255,31,1,0,       63P     36
0,255,32,1,0,0,255,2,0,0,0,255,33,0,0,0,255,34,1,0,0,255,8,1,0,       63P     37
0,255,17,1,0,0,255,35,1,0;                                            63P     38
508,4,0,255,6,1,0,0,255,36,0,0,0,255,37,0,0,0,255,18,0,0;             65P     39
508,4,0,255,38,0,0,0,255,35,0,0,0,255,20,1,0,0,255,39,0,0;            67P     40
508,4,0,255,11,1,0,0,255,24,1,0,0,255,40,0,0,0,255,41,0,0;            69P     41
508,4,0,255,42,1,0,0,255,43,0,0,0,255,22,0,0,0,255,30,0,0;            71P     42
508,4,0,255,44,0,0,0,255,45,0,0,0,255,42,0,0,0,255,29,0,0;            73P     43
508,4,0,255,46,0,0,0,255,25,0,0,0,255,38,1,0,0,255,47,0,0;            75P     44
508,4,0,255,46,1,0,0,255,48,1,0,0,255,49,1,0,0,255,26,0,0;            77P     45
508,16,0,255,39,1,0,0,255,19,1,0,0,255,37,1,0,0,255,50,0,0,0,         79P     46
255,51,1,0,0,255,4,0,0,0,255,52,0,0,0,255,53,0,0,0,255,40,1,0,0,      79P     47
255,23,1,0,0,255,43,1,0,0,255,45,1,0,0,255,54,0,0,0,255,55,0,0,       79P     48
0,255,48,0,0,0,255,47,1,0;                                            79P     49
508,4,0,255,44,1,0,0,255,28,0,0,0,255,56,0,0,0,255,54,1,0;            81P     50
508,4,0,255,55,1,0,0,255,56,1,0,0,255,27,0,0,0,255,49,0,0;            83P     51
508,6,0,255,9,1,0,0,255,34,0,0,0,255,57,0,0,0,255,50,1,0,0,255,       85P     52
36,1,0,0,255,5,1,0;                                                   85P     53
508,4,0,255,51,0,0,0,255,57,1,0,0,255,33,1,0,0,255,1,0,0;             87P     54
508,4,0,255,52,1,0,0,255,3,0,0,0,255,32,0,0,0,255,58,0,0;             89P     55
508,6,0,255,12,1,0,0,255,41,1,0,0,255,53,1,0,0,255,58,1,0,0,255,      91P     56
31,0,0,0,255,16,1,0;                                                  91P     57
126,1,1,0,0,1,0,0.,0.,7.,7.,1.,1.,50.,0.,60.,50.,70.,60.,0.,7.,       93P     58
0.,0.,0.;                                                             93P     59
126,1,1,0,0,1,0,0.,0.,10.,10.,1.,1.,50.,70.,60.,-50.,70.,60.,0.,      95P     60
10.,0.,0.,0.;                                                         95P     61
126,1,1,0,0,1,0,0.,0.,7.,7.,1.,1.,-50.,70.,60.,-50.,0.,60.,0.,        97P     62
7.,0.,0.,0.;                                                          97P     63
126,1,1,0,0,1,0,0.,0.,10.,10.,1.,1.,-50.,0.,60.,50.,0.,60.,0.,        99P     64
10.,0.,0.,0.;                                                         99P     65
126,2,2,0,0,0,0,1.73148697974681,1.73148697974681,                   101P     66
1.73148697974681,1.98240887077436,1.98240887077436,                  101P     67
1.98240887077436,1.,0.992140093565848,1.,8.00000000000001,64.,       101P     68
-49.3558507170123,14.2249270710748,64.,-48.34686361933,              101P     69
20.0043853376672,64.,-45.8238427814836,1.73148697974681,             101P     70
1.98240887077436,0.,0.,0.;                                           101P     71
126,1,1,0,0,1,0,-0.410088622959779,-0.410088622959779,               103P     72
0.877065075326472,0.877065075326472,1.,1.,8.,64.,                    103P     73
-62.2273876998748,8.,64.,-49.3558507170123,-0.410088622959779,       103P     74
0.877065075326472,0.,0.,0.;                                          103P     75
126,1,1,0,0,1,0,-2.03268677671912,-2.03268677671912,0.,0.,1.,1.,     105P     76
8.,64.,-62.2273876998748,20.0043853376672,64.,-45.8238427814836,     105P     77
-2.03268677671912,0.,0.,0.,0.;                                       105P     78
126,1,1,0,0,1,0,0.,0.,2.03268677671912,2.03268677671912,1.,1.,       107P     79
20.0043853376672,70.,-45.8238427814836,8.,70.,-62.2273876998748,     107P     80
0.,2.03268677671912,0.,0.,0.;                                        107P     81
126,1,1,0,0,1,0,6.4,6.4,7.,7.,1.,1.,20.0043853376672,64.,            109P     82
-45.8238427814836,20.0043853376672,70.,-45.8238427814836,6.4,7.,     109P     83
0.,0.,0.;                                                            109P     84
126,1,1,0,0,1,0,0.,0.,0.6,0.6,1.,1.,8.,70.,-62.2273876998748,8.,     111P     85
64.,-62.2273876998748,0.,0.6,0.,0.,0.;                               111P     86
126,1,1,0,0,1,0,-0.165695690332734,-0.165695690332734,               113P     87
1.12145800795352,1.12145800795352,1.,1.,-8.,64.,                     113P     88
-49.3558507170123,-8.,64.,-62.2273876998748,-0.165695690332734,      113P     89
1.12145800795352,0.,0.,0.;                                           113P     90
126,2,2,0,0,0,0,1.15918378281543,1.15918378281543,                   115P     91
1.15918378281543,1.41010567384299,1.41010567384299,                  115P     92
1.41010567384299,1.,0.992140093565848,1.,-20.0043853376672,64.,      115P     93
-45.8238427814836,-14.2249270710748,64.,-48.34686361933,-8.,64.,     115P     94
-49.3558507170123,1.15918378281543,1.41010567384299,0.,0.,0.;        115P     95
126,1,1,0,0,1,0,-2.03268677671912,-2.03268677671912,0.,0.,1.,1.,     117P     96
-20.0043853376672,64.,-45.8238427814836,-8.,64.,                     117P     97
-62.2273876998748,-2.03268677671912,0.,0.,0.,0.;                     117P     98
126,1,1,0,0,1,0,0.,0.,2.03268677671912,2.03268677671912,1.,1.,       119P     99
-8.,70.,-62.2273876998748,-20.0043853376672,70.,                     119P    100
-45.8238427814836,0.,2.03268677671912,0.,0.,0.;                      119P    101
126,1,1,0,0,1,0,0.,0.,0.6,0.6,1.,1.,-8.,70.,-62.2273876998748,       121P    102
-8.,64.,-62.2273876998748,0.,0.6,0.,0.,0.;                           121P    103
126,1,1,0,0,1,0,-7.,-7.,-6.4,-6.4,1.,1.,-20.0043853376672,70.,       123P    104
-45.8238427814836,-20.0043853376672,64.,-45.8238427814836,-7.,       123P    105
-6.4,0.,0.,0.;                                                       123P    106
126,1,1,0,0,1,0,0.,0.,0.494986450638904,0.494986450638904,1.,1.,     125P    107
8.,70.,-62.2273876998748,3.05013549361096,70.,-62.2273876998748,     125P    108
0.,0.494986450638904,0.,0.,0.;                                       125P    109
126,1,1,0,0,1,0,0.6,0.6,7.,7.,1.,1.,8.,64.,-62.2273876998748,8.,     127P    110
0.,-62.2273876998748,0.6,7.,0.,0.,0.;                                127P    111
126,1,1,0,0,1,0,0.152506774680548,0.152506774680548,                 129P    112
0.647493225319452,0.647493225319452,1.,1.,3.05013549361096,0.,       129P    113
-62.2273876998748,8.,0.,-62.2273876998748,0.152506774680548,         129P    114
0.647493225319452,0.,0.,0.;                                          129P    115
126,1,1,0,0,1,0,0.,0.,7.,7.,1.,1.,3.05013549361096,70.,              131P    116
-62.2273876998748,3.05013549361096,0.,-62.2273876998748,0.,7.,       131P    117
0.,0.,0.;                                                            131P    118
126,1,1,0,0,1,0,0.,0.,0.494999999999999,0.494999999999999,1.,1.,     133P    119
-3.05000000000001,70.,-62.2273876998748,-8.,70.,                     133P    120
-62.2273876998748,0.,0.494999999999999,0.,0.,0.;                     133P    121
126,1,1,0,0,1,0,0.,0.,7.,7.,1.,1.,-3.05000000000001,70.,             135P    122
-62.2273876998748,-3.05000000000001,0.,-62.2273876998748,0.,7.,      135P    123
0.,0.,0.;                                                            135P    124
126,1,1,0,0,1,0,-0.4,-0.4,0.0949999999999993,0.0949999999999993,     137P    125
1.,1.,-8.,0.,-62.2273876998748,-3.05000000000001,0.,                 137P    126
-62.2273876998748,-0.4,0.0949999999999993,0.,0.,0.;                  137P    127
126,1,1,0,0,1,0,0.6,0.6,7.,7.,1.,1.,-8.,64.,-62.2273876998748,       139P    128
-8.,0.,-62.2273876998748,0.6,7.,0.,0.,0.;                            139P    129
126,2,2,0,0,0,0,0.,0.,0.,1.23674948052298,1.23674948052298,          141P    130
1.23674948052298,1.,0.814821714382672,1.,3.04999999999999,70.,       141P    131
-62.,3.04999999999999,70.,-59.8300523417589,1.,70.,                  141P    132
-59.1185940931552,0.,1.23674948052298,0.,0.,0.;                      141P    133
126,1,1,0,0,1,0,0.488140590684478,0.488140590684478,                 143P    134
2.40125019537356,2.40125019537356,1.,1.,1.,70.,                      143P    135
-59.1185940931552,1.,70.,-39.9874980462644,0.488140590684478,        143P    136
2.40125019537356,0.,0.,0.;                                           143P    137
126,8,2,0,0,0,0,-1.54579372189554,-1.54579372189554,                 145P    138
-1.54579372189554,0.0125013024496803,0.0125013024496803,             145P    139
1.5707963267949,1.5707963267949,3.12909135114011,                    145P    140
3.12909135114011,4.68738637548533,4.68738637548533,                  145P    141
4.68738637548533,1.,0.711512816760748,1.,0.711512816760748,1.,       145P    142
0.711512816760748,1.,0.711512816760747,1.,0.999999999999989,70.,     145P    143
-39.9874980462644,40.4907010735127,70.,-38.9999218536298,            145P    144
39.9968743894481,70.,0.500039073185077,39.5030477053834,70.,40.,     145P    145
2.02128619922972D-14,70.,40.,-39.5030477053834,70.,40.,              145P    146
-39.9968743894481,70.,0.500039073185099,-40.4907010735128,70.,       145P    147
-38.9999218536298,-1.00000000000002,70.,-39.9874980462644,           145P    148
-1.54579372189554,4.68738637548533,0.,0.,0.;                         145P    149
126,1,1,0,0,1,0,0.498749804626441,0.498749804626441,                 147P    150
2.41185940931552,2.41185940931552,1.,1.,-1.,70.,                     147P    151
-39.9874980462644,-1.,70.,-59.1185940931552,0.498749804626441,       147P    152
2.41185940931552,0.,0.,0.;                                           147P    153
126,2,2,0,0,0,0,1.90484317306681,1.90484317306681,                   149P    154
1.90484317306681,3.14159265358979,3.14159265358979,                  149P    155
3.14159265358979,1.,0.814821714382669,1.,-1.,70.,                    149P    156
-59.1185940931552,-3.05000000000001,70.,-59.8300523417589,           149P    157
-3.05000000000001,70.,-62.,1.90484317306681,3.14159265358979,0.,     149P    158
0.,0.;                                                               149P    159
126,1,1,0,0,1,0,1.4,1.4,1.42273876998748,1.42273876998748,1.,1.,     151P    160
-3.05000000000001,70.,-62.,-3.05000000000001,70.,                    151P    161
-62.2273876998748,1.4,1.42273876998748,0.,0.,0.;                     151P    162
126,2,2,0,0,0,0,-1.15918378281543,-1.15918378281543,                 153P    163
-1.15918378281543,0.,0.,0.,1.,0.836686233528837,1.,                  153P    164
-20.0043853376672,70.,-45.8238427814836,-50.,70.,                    153P    165
-32.7292658598826,-50.,70.,0.,-1.15918378281543,0.,0.,0.,0.;         153P    166
126,1,1,0,0,1,0,0.,0.,6.,6.,1.,1.,-50.,70.,0.,-50.,70.,60.,0.,       155P    167
6.,0.,0.,0.;                                                         155P    168
126,1,1,0,0,1,0,-5.,-5.,1.,1.,1.,1.,50.,70.,0.,50.,70.,60.,-5.,      157P    169
1.,0.,0.,0.;                                                         157P    170
126,2,2,0,0,0,0,-3.14159265358979,-3.14159265358979,                 159P    171
-3.14159265358979,-1.98240887077436,-1.98240887077436,               159P    172
-1.98240887077436,1.,0.836686233528837,1.,50.,70.,                   159P    173
-6.12323399573677D-15,50.,70.,-32.7292658598826,                     159P    174
20.0043853376672,70.,-45.8238427814836,-3.14159265358979,            159P    175
-1.98240887077436,0.,0.,0.;                                          159P    176
126,1,1,0,0,1,0,0.,0.,0.0227387699874768,0.0227387699874768,1.,      161P    177
1.,3.05013549361096,70.,-62.2273876998748,3.05013549361096,70.,      161P    178
-62.,0.,0.0227387699874768,0.,0.,0.;                                 161P    179
126,1,1,0,0,1,0,0.,0.,6.4,6.4,1.,1.,8.,0.,-49.3558507170123,8.,      163P    180
64.,-49.3558507170123,0.,6.4,0.,0.,0.;                               163P    181
126,1,1,0,0,1,0,-0.35568469249687,-0.35568469249687,                 165P    182
0.931469005789381,0.931469005789381,1.,1.,8.,0.,                     165P    183
-62.2273876998748,8.,0.,-49.3558507170123,-0.35568469249687,         165P    184
0.931469005789381,0.,0.,0.;                                          165P    185
126,1,1,0,0,1,0,-3.5,-3.5,3.5,3.5,1.,1.,3.05013549361096,70.,        167P    186
-62.,3.05013549361096,0.,-62.,-3.5,3.5,0.,0.,0.;                     167P    187
126,1,1,0,0,1,0,1.04431530750313,1.04431530750313,                   169P    188
1.06705407749061,1.06705407749061,1.,1.,3.05013549361096,0.,         169P    189
-62.,3.05013549361096,0.,-62.2273876998748,1.04431530750313,         169P    190
1.06705407749061,0.,0.,0.;                                           169P    191
126,1,1,0,0,1,0,-0.220099620795644,-0.220099620795644,               171P    192
1.06705407749061,1.06705407749061,1.,1.,-8.,0.,                      171P    193
-49.3558507170123,-8.,0.,-62.2273876998748,-0.220099620795644,       171P    194
1.06705407749061,0.,0.,0.;                                           171P    195
126,1,1,0,0,1,0,-6.4,-6.4,0.,0.,1.,1.,-8.,64.,-49.3558507170123,     173P    196
-8.,0.,-49.3558507170123,-6.4,0.,0.,0.,0.;                           173P    197
126,1,1,0,0,1,0,0.,0.,7.,7.,1.,1.,-3.05000000000001,70.,-62.,        175P    198
-3.05000000000001,8.88178419700125D-15,-62.,0.,7.,0.,0.,0.;          175P    199
126,1,1,0,0,1,0,-0.35568469249687,-0.35568469249687,                 177P    200
-0.332945922509393,-0.332945922509393,1.,1.,-3.05000000000001,       177P    201
0.,-62.2273876998748,-3.05000000000001,0.,-62.,                      177P    202
-0.35568469249687,-0.332945922509393,0.,0.,0.;                       177P    203
126,1,1,0,0,1,0,-7.,-7.,0.,0.,1.,1.,-1.,8.88178419700125D-15,        179P    204
-59.1185940931552,-1.,70.,-59.1185940931552,-7.,0.,0.,0.,0.;         179P    205
126,2,2,0,0,0,0,-3.14159265358979,-3.14159265358979,                 181P    206
-3.14159265358979,-1.90484317306681,-1.90484317306681,               181P    207
-1.90484317306681,1.,0.814821714382669,1.,-3.05000000000001,0.,      181P    208
-62.,-3.05000000000001,0.,-59.8300523417589,-1.,0.,                  181P    209
-59.1185940931552,-3.14159265358979,-1.90484317306681,0.,0.,0.;      181P    210
126,1,1,0,0,1,0,0.,0.,7.,7.,1.,1.,1.,70.,-59.1185940931552,1.,       183P    211
8.88178419700125D-15,-59.1185940931552,0.,7.,0.,0.,0.;               183P    212
126,2,2,0,0,0,0,-1.23674948052298,-1.23674948052298,                 185P    213
-1.23674948052298,0.,0.,0.,1.,0.814821714382672,1.,1.,0.,            185P    214
-59.1185940931552,3.04999999999999,0.,-59.8300523417589,             185P    215
3.04999999999999,0.,-62.,-1.23674948052298,0.,0.,0.,0.;              185P    216
126,1,1,0,0,1,0,0.488140590684478,0.488140590684478,                 187P    217
2.40125019537356,2.40125019537356,1.,1.,1.,0.,-59.1185940931552,     187P    218
1.,0.,-39.9874980462644,0.488140590684478,2.40125019537356,0.,       187P    219
0.,0.;                                                               187P    220
126,1,1,0,0,1,0,0.,0.,7.,7.,1.,1.,0.999999999999985,0.,              189P    221
-39.9874980462644,0.999999999999985,70.,-39.9874980462644,0.,7.,     189P    222
0.,0.,0.;                                                            189P    223
126,2,2,0,0,0,0,-3.14159265358979,-3.14159265358979,                 191P    224
-3.14159265358979,-1.73148697974681,-1.73148697974681,               191P    225
-1.73148697974681,1.,0.761577310586391,1.,50.,0.,                    191P    226
-6.12323399573677D-15,50.,0.,-42.5481471698382,8.00000000000001,     191P    227
0.,-49.3558507170123,-3.14159265358979,-1.73148697974681,0.,0.,      191P    228
0.;                                                                  191P    229
126,1,1,0,0,1,0,-5.,-5.,1.,1.,1.,1.,50.,0.,0.,50.,0.,60.,-5.,1.,     193P    230
0.,0.,0.;                                                            193P    231
126,1,1,0,0,1,0,0.,0.,6.,6.,1.,1.,-50.,0.,0.,-50.,0.,60.,0.,6.,      195P    232
0.,0.,0.;                                                            195P    233
126,2,2,0,0,0,0,-1.41010567384299,-1.41010567384299,                 197P    234
-1.41010567384299,0.,0.,0.,1.,0.761577310586391,1.,-8.,0.,           197P    235
-49.3558507170123,-50.,0.,-42.5481471698382,-50.,0.,0.,              197P    236
-1.41010567384299,0.,0.,0.,0.;                                       197P    237
126,1,1,0,0,1,0,0.498749804626441,0.498749804626441,                 199P    238
2.41185940931552,2.41185940931552,1.,1.,-1.,0.,                      199P    239
-39.9874980462644,-1.,0.,-59.1185940931552,0.498749804626441,        199P    240
2.41185940931552,0.,0.,0.;                                           199P    241
126,8,2,0,0,0,0,-1.54579372189554,-1.54579372189554,                 201P    242
-1.54579372189554,0.0125013024496803,0.0125013024496803,             201P    243
1.5707963267949,1.5707963267949,3.12909135114011,                    201P    244
3.12909135114011,4.68738637548533,4.68738637548533,                  201P    245
4.68738637548533,1.,0.711512816760748,1.,0.711512816760748,1.,       201P    246
0.711512816760748,1.,0.711512816760747,1.,0.999999999999989,0.,      201P    247
-39.9874980462644,40.4907010735127,0.,-38.9999218536298,             201P    248
39.9968743894481,0.,0.500039073185077,39.5030477053834,0.,40.,       201P    249
2.02128619922972D-14,0.,40.,-39.5030477053834,0.,40.,                201P    250
-39.9968743894481,0.,0.500039073185099,-40.4907010735128,0.,         201P    251
-38.9999218536298,-1.00000000000002,0.,-39.9874980462644,            201P    252
-1.54579372189554,4.68738637548533,0.,0.,0.;                         201P    253
126,1,1,0,0,1,0,0.,0.,7.,7.,1.,1.,-1.00000000000001,0.,              203P    254
-39.9874980462644,-1.00000000000001,70.,-39.9874980462644,0.,7.,     203P    255
0.,0.,0.;                                                            203P    256
126,1,1,0,0,1,0,0.,0.,7.,7.,1.,1.,50.,0.,0.,50.,70.,0.,0.,7.,0.,     205P    257
0.,0.;                                                               205P    258
126,1,1,0,0,1,0,0.,0.,7.,7.,1.,1.,-50.,0.,0.,-50.,70.,0.,0.,7.,      207P    259
0.,0.,0.;                                                            207P    260
128,1,1,1,1,0,0,1,0,0,-5.001,-5.001,5.001,5.001,-3.501,-3.501,       209P    261
3.501,3.501,1.,1.,1.,1.,-50.01,-0.0099999999999989,60.,50.01,        209P    262
-0.0099999999999989,60.,-50.01,70.01,60.,50.01,70.01,60.,-5.001,     209P    263
5.001,-3.501,3.501;                                                  209P    264
128,1,1,1,1,0,0,1,0,0,-0.82117724591956,-0.82117724591956,           211P    265
0.821177245919559,0.821177245919559,-0.477472654223634,              211P    266
-0.477472654223634,0.724965879543086,0.724965879543086,1.,1.,1.,     211P    267
1.,7.99,64.,-45.8138427814836,7.99,64.,-62.2373876998748,            211P    268
20.0143853376672,64.,-45.8138427814836,20.0143853376672,64.,         211P    269
-62.2373876998748,-0.82117724591956,0.821177245919559,               211P    270
-0.477472654223634,0.724965879543086;                                211P    271
128,1,1,1,1,0,0,1,0,0,-0.001,-0.001,2.03368677671912,                213P    272
2.03368677671912,-0.001,-0.001,0.601,0.601,1.,1.,1.,1.,              213P    273
7.99409432605399,70.01,-62.2354575830984,20.0102910116132,70.01,     213P    274
-45.8157728982599,7.99409432605399,63.99,-62.2354575830984,          213P    275
20.0102910116132,63.99,-45.8157728982599,-0.001,                     213P    276
2.03368677671912,-0.001,0.601;                                       213P    277
128,1,1,1,1,0,0,1,0,0,-0.82117724591956,-0.82117724591956,           215P    278
0.821177245919559,0.821177245919559,-0.72496926688336,               215P    279
-0.72496926688336,0.47746926688336,0.47746926688336,1.,1.,1.,1.,     215P    280
-20.0143853376672,64.,-45.8138427814836,-20.0143853376672,64.,       215P    281
-62.2373876998748,-7.99,64.,-45.8138427814836,-7.99,64.,             215P    282
-62.2373876998748,-0.82117724591956,0.821177245919559,               215P    283
-0.72496926688336,0.47746926688336;                                  215P    284
128,1,1,1,1,0,0,1,0,0,-0.001,-0.001,2.03368677671912,                217P    285
2.03368677671912,-0.001,-0.001,0.601,0.601,1.,1.,1.,1.,              217P    286
-20.0102910116132,70.01,-45.8157728982599,-7.99409432605399,         217P    287
70.01,-62.2354575830984,-20.0102910116132,63.99,                     217P    288
-45.8157728982599,-7.99409432605399,63.99,-62.2354575830984,         217P    289
-0.001,2.03368677671912,-0.001,0.601;                                217P    290
128,1,1,1,1,0,0,1,0,0,-0.00100000000000006,-0.00100000000000006,     219P    291
0.495986450638904,0.495986450638904,-0.001,-0.001,7.001,7.001,       219P    292
1.,1.,1.,1.,3.04013549361096,70.01,-62.2273876998748,8.01,70.01,     219P    293
-62.2273876998748,3.04013549361096,-0.0100000000000033,              219P    294
-62.2273876998748,8.01,-0.0100000000000033,-62.2273876998748,        219P    295
-0.00100000000000006,0.495986450638904,-0.001,7.001;                 219P    296
128,1,1,1,1,0,0,1,0,0,-0.001,-0.001,0.495999999999999,               221P    297
0.495999999999999,-0.001,-0.001,7.001,7.001,1.,1.,1.,1.,-8.01,       221P    298
70.01,-62.2273876998748,-3.04000000000001,70.01,                     221P    299
-62.2273876998748,-8.01,-0.0100000000000033,-62.2273876998748,       221P    300
-3.04000000000001,-0.0100000000000033,-62.2273876998748,-0.001,      221P    301
0.495999999999999,-0.001,7.001;                                      221P    302
128,1,1,1,1,0,0,1,0,0,-5.62373876998748,-5.62373876998748,6.601,     223P    303
6.601,-5.001,-5.001,5.001,5.001,1.,1.,1.,1.,-50.01,70.,              223P    304
-62.2373876998748,-50.01,70.,60.01,50.01,70.,-62.2373876998748,      223P    305
50.01,70.,60.01,-5.62373876998748,6.601,-5.001,5.001;                223P    306
128,1,1,1,1,0,0,1,0,0,-0.001,-0.001,1.28815369828625,                225P    307
1.28815369828625,0.599,0.599,7.001,7.001,1.,1.,1.,1.,8.,64.01,       225P    308
-62.2373876998748,8.,64.01,-49.3458507170123,8.,                     225P    309
-0.0100000000000033,-62.2373876998748,8.,-0.0100000000000033,        225P    310
-49.3458507170123,-0.001,1.28815369828625,0.599,7.001;               225P    311
128,1,1,1,1,0,0,1,0,0,1.399,1.399,1.42373876998748,                  227P    312
1.42373876998748,-0.001,-0.001,7.001,7.001,1.,1.,1.,1.,              227P    313
3.05013549361096,70.01,-61.99,3.05013549361096,70.01,                227P    314
-62.2373876998748,3.05013549361096,-0.0100000000000033,-61.99,       227P    315
3.05013549361096,-0.0100000000000033,-62.2373876998748,1.399,        227P    316
1.42373876998748,-0.001,7.001;                                       227P    317
128,1,1,1,1,0,0,1,0,0,0.134585071701225,0.134585071701225,           229P    318
1.42373876998748,1.42373876998748,0.599,0.599,7.001,7.001,1.,1.,     229P    319
1.,1.,-8.,64.01,-49.3458507170123,-8.,64.01,-62.2373876998748,       229P    320
-8.,-0.0100000000000033,-49.3458507170123,-8.,                       229P    321
-0.0100000000000033,-62.2373876998748,0.134585071701225,             229P    322
1.42373876998748,0.599,7.001;                                        229P    323
128,1,1,1,1,0,0,1,0,0,-0.001,-0.001,0.0237387699874768,              231P    324
0.0237387699874768,-0.001,-0.001,7.001,7.001,1.,1.,1.,1.,            231P    325
-3.05000000000001,70.01,-62.2373876998748,-3.05000000000001,         231P    326
70.01,-61.99,-3.05000000000001,-0.0100000000000033,                  231P    327
-62.2373876998748,-3.05000000000001,-0.0100000000000033,-61.99,      231P    328
-0.001,0.0237387699874768,-0.001,7.001;                              231P    329
128,1,2,1,2,0,0,0,0,0,0.,0.,22.9508196721311,22.9508196721311,       233P    330
1.90484317306681,1.90484317306681,1.90484317306681,                  233P    331
3.14159265358979,3.14159265358979,3.14159265358979,1.,1.,            233P    332
0.814821714382666,0.814821714382666,1.,1.,-0.999999999999999,        233P    333
70.,-59.1185940931552,-0.999999999999999,8.88178419700125D-15,       233P    334
-59.1185940931552,-3.05000000000001,70.,-59.8300523417589,           233P    335
-3.05000000000001,8.88178419700125D-15,-59.8300523417589,            233P    336
-3.05000000000001,70.,-62.,-3.05000000000001,                        233P    337
8.88178419700125D-15,-62.,0.,22.9508196721311,1.90484317306681,      233P    338
3.14159265358979;                                                    233P    339
128,1,2,1,2,0,0,0,0,0,0.,0.,22.9508196721311,22.9508196721311,       235P    340
0.,0.,0.,1.23674948052298,1.23674948052298,1.23674948052298,1.,      235P    341
1.,0.814821714382668,0.814821714382668,1.,1.,3.04999999999999,       235P    342
70.,-62.,3.04999999999999,8.88178419700125D-15,-62.,                 235P    343
3.04999999999999,70.,-59.8300523417589,3.04999999999999,             235P    344
8.88178419700125D-15,-59.8300523417589,1.,70.,-59.1185940931552,     235P    345
1.,8.88178419700125D-15,-59.1185940931552,0.,22.9508196721311,       235P    346
0.,1.23674948052298;                                                 235P    347
128,1,1,1,1,0,0,1,0,0,0.287140590684478,0.287140590684478,           237P    348
2.20225019537356,2.20225019537356,-0.001,-0.001,7.001,7.001,1.,      237P    349
1.,1.,1.,1.,-0.01,-59.1285940931552,1.,-0.01,-39.9774980462644,      237P    350
1.,70.01,-59.1285940931552,1.,70.01,-39.9774980462644,               237P    351
0.287140590684478,2.20225019537356,-0.001,7.001;                     237P    352
128,1,1,1,1,0,0,1,0,0,-5.62373876998748,-5.62373876998748,6.601,     239P    353
6.601,-5.001,-5.001,5.001,5.001,1.,1.,1.,1.,-50.01,0.,60.01,         239P    354
-50.01,0.,-62.2373876998748,50.01,0.,60.01,50.01,0.,                 239P    355
-62.2373876998748,-5.62373876998748,6.601,-5.001,5.001;              239P    356
128,1,1,1,1,0,0,1,0,0,-0.001,-0.001,1.91410960468908,                241P    357
1.91410960468908,-0.001,-0.001,7.001,7.001,1.,1.,1.,1.,-1.,          241P    358
-0.01,-39.9774980462644,-1.,-0.01,-59.1285940931552,-1.,70.01,       241P    359
-39.9774980462644,-1.,70.01,-59.1285940931552,-0.001,                241P    360
1.91410960468908,-0.001,7.001;                                       241P    361
128,1,8,1,2,0,0,0,0,0,0.,0.,1.75,1.75,1.59579893169426,              243P    362
1.59579893169426,1.59579893169426,3.15409395603947,                  243P    363
3.15409395603947,4.71238898038469,4.71238898038469,                  243P    364
6.27068400472991,6.27068400472991,7.82897902907512,                  243P    365
7.82897902907512,7.82897902907512,1.,1.,0.711512816760748,           243P    366
0.711512816760748,1.,1.,0.711512816760748,0.711512816760748,1.,      243P    367
1.,0.711512816760748,0.711512816760748,1.,1.,0.711512816760748,      243P    368
0.711512816760748,1.,1.,-1.,0.,-39.9874980462644,-1.,70.,            243P    369
-39.9874980462644,-40.4907010735128,0.,-38.9999218536298,            243P    370
-40.4907010735128,70.,-38.9999218536298,-39.9968743894481,0.,        243P    371
0.500039073185089,-39.9968743894481,70.,0.500039073185089,           243P    372
-39.5030477053834,0.,40.,-39.5030477053834,70.,40.,0.,0.,40.,0.,     243P    373
70.,40.,39.5030477053834,0.,40.,39.5030477053834,70.,40.,            243P    374
39.9968743894481,0.,0.500039073185104,39.9968743894481,70.,          243P    375
0.500039073185104,40.4907010735128,0.,-38.9999218536298,             243P    376
40.4907010735128,70.,-38.9999218536298,1.00000000000003,0.,          243P    377
-39.9874980462644,1.00000000000003,70.,-39.9874980462644,0.,         243P    378
1.75,1.59579893169426,7.82897902907512;                              243P    379
128,1,2,1,2,0,0,0,0,0,0.,0.,1.4,1.4,-3.14159265358979,               245P    380
-3.14159265358979,-3.14159265358979,-1.73148697974681,               245P    381
-1.73148697974681,-1.73148697974681,1.,1.,0.761577310586391,         245P    382
0.761577310586391,1.,1.,50.,70.,0.,50.,0.,0.,50.,70.,                245P    383
-42.5481471698382,50.,0.,-42.5481471698382,8.00000000000001,70.,     245P    384
-49.3558507170123,8.00000000000001,0.,-49.3558507170123,0.,1.4,      245P    385
-3.14159265358979,-1.73148697974681;                                 245P    386
128,1,1,1,1,0,0,1,0,0,-1.001,-1.001,5.001,5.001,-0.001,-0.001,       247P    387
7.001,7.001,1.,1.,1.,1.,50.,-0.01,60.01,50.,-0.01,                   247P    388
-0.0100000000000033,50.,70.01,60.01,50.,70.01,                       247P    389
-0.0100000000000033,-1.001,5.001,-0.001,7.001;                       247P    390
128,1,1,1,1,0,0,1,0,0,-0.001,-0.001,6.001,6.001,-0.001,-0.001,       249P    391
7.001,7.001,1.,1.,1.,1.,-50.,-0.01,-0.01,-50.,-0.01,60.01,-50.,      249P    392
70.01,-0.01,-50.,70.01,60.01,-0.001,6.001,-0.001,7.001;              249P    393
128,1,2,1,2,0,0,0,0,0,0.,0.,1.4,1.4,-1.41010567384299,               251P    394
-1.41010567384299,-1.41010567384299,0.,0.,0.,1.,1.,                  251P    395
0.761577310586391,0.761577310586391,1.,1.,-8.,70.,                   251P    396
-49.3558507170123,-8.,0.,-49.3558507170123,-50.,70.,                 251P    397
-42.5481471698382,-50.,0.,-42.5481471698382,-50.,70.,0.,-50.,0.,     251P    398
0.,0.,1.4,-1.41010567384299,0.;                                      251P    399
502,38,50.,0.,60.,50.,70.,60.,-50.,70.,60.,-50.,0.,60.,8.,64.,       253P    400
-49.3558507170123,20.0043853376672,64.,-45.8238427814836,8.,64.,     253P    401
-62.2273876998748,20.0043853376672,70.,-45.8238427814836,8.,70.,     253P    402
-62.2273876998748,-8.,64.,-49.3558507170123,-8.,64.,                 253P    403
-62.2273876998748,-20.0043853376672,64.,-45.8238427814836,-8.,       253P    404
70.,-62.2273876998748,-20.0043853376672,70.,-45.8238427814836,       253P    405
3.05013549361096,70.,-62.2273876998748,8.,0.,-62.2273876998748,      253P    406
3.05013549361096,0.,-62.2273876998748,-3.05000000000001,70.,         253P    407
-62.2273876998748,-3.05000000000001,0.,-62.2273876998748,-8.,0.,     253P    408
-62.2273876998748,3.05013549361096,70.,-62.,1.,70.,                  253P    409
-59.1185940931552,0.999999999999984,70.,-39.9874980462644,           253P    410
-1.00000000000001,70.,-39.9874980462644,-1.,70.,                     253P    411
-59.1185940931552,-3.05000000000001,70.,-62.,-50.,70.,0.,50.,        253P    412
70.,0.,8.,0.,-49.3558507170123,3.05013549361096,0.,-62.,-8.,0.,      253P    413
-49.3558507170123,-3.05000000000001,8.88178419700125D-15,-62.,       253P    414
-1.,8.88178419700125D-15,-59.1185940931552,1.,                       253P    415
8.88178419700125D-15,-59.1185940931552,0.999999999999985,0.,         253P    416
-39.9874980462644,50.,0.,0.,-50.,0.,0.,-1.00000000000001,0.,         253P    417
-39.9874980462644;                                                   253P    418
504,58,93,253,1,253,2,95,253,2,253,3,97,253,3,253,4,99,253,4,        255P    419
253,1,101,253,5,253,6,103,253,7,253,5,105,253,7,253,6,107,253,8,     255P    420
253,9,109,253,6,253,8,111,253,9,253,7,113,253,10,253,11,115,253,     255P    421
12,253,10,117,253,12,253,11,119,253,13,253,14,121,253,13,253,11,     255P    422
123,253,14,253,12,125,253,9,253,15,127,253,7,253,16,129,253,17,      255P    423
253,16,131,253,15,253,17,133,253,18,253,13,135,253,18,253,19,        255P    424
137,253,20,253,19,139,253,11,253,20,141,253,21,253,22,143,253,       255P    425
22,253,23,145,253,23,253,24,147,253,24,253,25,149,253,25,253,26,     255P    426
151,253,26,253,18,153,253,14,253,27,155,253,27,253,3,157,253,28,     255P    427
253,2,159,253,28,253,8,161,253,15,253,21,163,253,29,253,5,165,       255P    428
253,16,253,29,167,253,21,253,30,169,253,30,253,17,171,253,31,        255P    429
253,20,173,253,10,253,31,175,253,26,253,32,177,253,19,253,32,        255P    430
179,253,33,253,25,181,253,32,253,33,183,253,22,253,34,185,253,       255P    431
34,253,30,187,253,34,253,35,189,253,35,253,23,191,253,36,253,29,     255P    432
193,253,36,253,1,195,253,37,253,4,197,253,31,253,37,199,253,38,      255P    433
253,33,201,253,35,253,38,203,253,38,253,24,205,253,36,253,28,        255P    434
207,253,37,253,27;                                                   255P    435
406,1,6HSolid1;                                                      257P    436
314,74.9019607843137,74.9019607843137,74.9019607843137,;             259P    437
S      1G      3D    260P    437                                        T      1
